<?xml version="1.0" encoding="UTF-8" standalone="no"?>
<!-- Created with Inkscape (http://www.inkscape.org/) -->

<svg
   version="1.1"
   id="svg2"
   width="2141.5535"
   height="632.34619"
   viewBox="0 0 2141.5535 632.34619"
   xmlns="http://www.w3.org/2000/svg"
   xmlns:svg="http://www.w3.org/2000/svg">
  <defs
     id="defs6" />
  <g
     id="layer1"
     transform="translate(-123.21359,-37.95467)">
    <path
       style="fill:#ffffff;fill-opacity:1;stroke-width:75.5906"
       d="m 1660.7006,657.58554 45.3591,-3.51715 -0.7277,-41.96322 -1.9405,-57.00207 16.1304,-61.61074 24.7413,-14.43244 29.1075,14.91756 11.6429,40.99298 0.1213,24.37748 0.7277,81.0157 18.9198,22.19442 53.1211,-33.47355 18.0709,-48.63368 14.9175,-77.61984 17.2219,-56.03182 26.9244,-86.7159 -3.1533,-63.91509 -44.7527,-47.78471 -58.9425,-21.95186 -94.4779,7.27686 -42.4484,14.18988 -48.8762,-15.64525 -63.5512,31.53306 -20.3753,54.33388 -2.3043,44.99525 27.0457,70.34298 20.3752,47.42086 4.3661,69.97914 19.6475,70.34297 z"
       id="path4704" />
    <path
       style="fill:#57bd7d;fill-opacity:1;stroke-width:75.5906"
       d="m 957.06611,296.38176 -148.19088,-34.98951 -114.57351,98.79392 21.95421,187.98288 155.05157,72.7233 106.34067,-62.43227 z"
       id="path397" />
    <path
       style="fill:#34a7de;fill-opacity:1;stroke-width:75.5906"
       d="m 1193.9903,415.75775 209.0206,-4.80248 10.9771,-95.36358 -116.6317,-54.19944 -103.366,73.40937 z"
       id="path1009" />
    <path
       style="fill:#34a7de;fill-opacity:1;stroke-width:75.5906"
       d="m 1725.8375,407.61887 3.3991,-22.39119 38.0471,-6.70789 20.6118,2.59148 -9.9162,14.20412 -27.652,10.79401 z"
       id="path1791" />
  </g>
  <g
     id="g8"
     transform="translate(-123.21359,-37.95467)">
    <path
       style="fill:#232841;fill-opacity:1"
       d="m 1667.7684,668.74904 c -20.1593,-5.52574 -34.588,-19.8419 -48.0566,-47.68186 -9.638,-19.92214 -16.369,-42.19624 -21.2179,-70.21455 -3.1271,-18.06903 -4.1383,-26.95659 -6.1183,-53.77165 -2.4239,-32.8274 -4.8388,-40.44614 -20.958,-66.12099 -13.926,-22.18147 -18.9197,-35.97029 -23.0356,-63.60736 -3.9077,-26.23954 -0.03,-59.9559 9.5394,-82.94246 6.8703,-16.50313 22.4285,-35.12414 36.2516,-43.38807 15.423,-9.22043 36.0672,-15.14464 52.8298,-15.16042 15.4343,-0.0145 36.151,6.30094 44.9466,13.70194 l 3.0261,2.5463 9.7261,-4.57491 c 13.7292,-6.45782 26.7359,-11.2759 39.5979,-14.66827 22.6051,-5.96216 27.1489,-6.51459 53.0815,-6.45364 20.8709,0.049 25.369,0.34691 34.5,2.28458 26.4074,5.60384 50.0848,16.35644 71.8782,32.64208 25.2425,18.86297 37.3828,40.59623 41.0829,73.54577 2.3242,20.69659 -1.788,47.41724 -13.0053,84.50861 -5.0073,16.55694 -9.8616,28.97207 -18.9473,48.45849 -13.1036,28.10369 -14.4075,33.16962 -18.9785,73.73342 -4.756,42.20623 -7.514,54.68708 -16.9381,76.65033 -14.7142,34.29193 -34.7228,54.74922 -58.8855,60.20585 -8.6961,1.96381 -13.6262,1.40031 -21.7746,-2.48876 -7.6945,-3.67244 -12.1879,-8.18912 -16.6175,-16.70347 -7.6037,-14.61542 -8.2565,-22.04858 -4.1673,-47.45281 2.2197,-13.79017 2.6553,-19.75355 2.6984,-36.94456 0.03,-11.85769 -0.4797,-23.87261 -1.2084,-28.5 -1.6852,-10.7019 -5.6297,-25.58526 -8.0253,-30.28102 -3.4937,-6.84822 -13.6393,-14.7409 -21.32,-16.58567 -3.7576,-0.90249 -10.136,1.85589 -13.7135,5.93044 -12.7337,14.50288 -23.0871,51.81527 -23.013,82.93625 0.025,10.46152 0.6429,15.5844 5.9706,49.5 2.2025,14.0208 2.2214,14.69257 0.5707,20.3269 -2.1141,7.21628 -7.403,13.22514 -15.3544,17.4446 -8.8996,4.72262 -23.6443,6.06341 -34.3647,3.12491 z m 26.976,-19.18725 c 2.3194,-1.53497 4.6821,-4.00997 5.2505,-5.5 1.2619,-3.30855 -0.1419,-16.73973 -3.7845,-36.20916 -4.5387,-24.25924 -4.1896,-43.84557 1.2655,-71 7.5344,-37.50488 21.8761,-59.51141 41.6755,-63.94854 11.7498,-2.63319 27.7783,2.91332 36.9042,12.77037 9.9456,10.74249 15.3088,24.0286 18.2371,45.17817 3.4423,24.86211 3.0847,42.00575 -1.5642,75 -1.1237,7.975 -1.8741,17.425 -1.6676,21 0.5069,8.7748 5.0077,18.39646 10.7228,22.92293 3.7236,2.94914 4.7267,3.27105 8.9336,2.86682 11.3233,-1.08802 26.1328,-11.87365 36.0994,-26.29083 16.8628,-24.39288 25.6607,-55.10376 31.0924,-108.53496 3.1572,-31.05598 4.6331,-36.64782 16.4872,-62.46396 26.0322,-56.69344 36.7255,-103.91961 30.9845,-136.84073 -5.3962,-30.94397 -23.1214,-51.76071 -58.9146,-69.18989 -36.0211,-17.54022 -72.0054,-20.47161 -115.7453,-9.42897 -15.8902,4.01165 -20.084,5.62902 -42.8399,16.52158 -20.9092,10.00857 -33.1181,14.13536 -44.7201,15.11609 -6.9055,0.58373 -7.2799,0.50832 -7.2799,-1.46625 0,-6.52596 1.9684,-7.9699 17.25,-12.6539 4.8125,-1.47509 8.7379,-2.99158 8.7231,-3.36996 -0.041,-1.05902 -11.7886,-6.06196 -18.4859,-7.87283 -3.862,-1.04423 -10.0692,-1.62452 -17.4872,-1.63483 -13.9436,-0.0194 -23.2092,2.26255 -35.9318,8.84919 -13.7355,7.11107 -21.8152,14.82603 -30.2141,28.85009 -14.7081,24.55883 -18.7634,64.74123 -10.2053,101.12041 3.228,13.72192 6.7223,21.39132 17.5409,38.5 10.1425,16.03934 13.9583,23.39718 17.2215,33.20667 3.1787,9.55578 6.5875,30.06317 6.5938,39.66866 0,4.19357 0.6719,15.18384 1.4869,24.42283 3.5703,40.47253 10.3369,67.2616 24.0469,95.20184 13.8008,28.12536 26.9319,38.92068 46.5343,38.25657 6.3619,-0.21553 8.2476,-0.70294 11.7903,-3.04741 z m 12.2412,-237.25551 c -30.9302,-6.70969 -52.531,-25.92754 -56.5986,-50.35466 l -0.7328,-4.40101 5.8634,0.68848 c 3.2249,0.37867 9.9134,1.77599 14.8634,3.10517 18.1446,4.8722 25.7293,5.77879 43.5,5.19948 26.1395,-0.85212 42.4748,-5.52782 76.0419,-21.76569 13.5485,-6.55399 21.8895,-10.02015 24.5,-10.18122 l 3.9581,-0.2442 0.3052,4.7602 c 0.1679,2.61811 -0.4098,7.56811 -1.2837,11 -7.7622,30.48211 -37.782,56.63601 -71.9552,62.68882 -8.2553,1.46221 -30.7747,1.17217 -38.4617,-0.49537 z m 42.3954,-10.49285 c 9.7137,-2.54684 18.2082,-6.1699 25.3547,-10.81432 l 5.3547,-3.47994 -2.3487,-1.77163 c -8.6707,-6.54034 -24.5606,-4.15811 -37.9824,5.69439 -4.2552,3.12367 -9.8783,10.46163 -9.8783,12.89101 0,1.20514 10.4377,-0.14348 19.5,-2.51951 z M 508.88098,665.27655 c -10.07731,-2.64659 -19.32163,-7.92389 -25.42125,-14.51221 -7.10001,-7.66885 -10.05603,-13.49634 -11.46562,-22.60326 -1.43764,-9.2881 -1.56274,-350.76567 -0.13307,-363.20106 2.15387,-18.73443 13.37227,-32.54723 31.32996,-38.57543 15.68978,-5.26688 33.15265,-2.01783 45.97884,8.5546 4.69456,3.86965 9.93116,11.99704 12.83052,19.91343 l 2.38062,6.5 v 182.50001 c 0,175.14643 -0.0753,182.77314 -1.86886,189.27886 -4.55586,16.52534 -17.74363,28.51723 -35.50007,32.28089 -8.16165,1.72995 -11.11097,1.70785 -18.13107,-0.13583 z m 790.50522,0.51887 c -22.5676,-1.9567 -56.4352,-11.56406 -78.9174,-22.38686 -22.0809,-10.62959 -49.8612,-31.16823 -64.2555,-47.50569 -32.2923,-36.65143 -49.6244,-77.4423 -55.9577,-131.69585 -2.9621,-25.37515 -0.9706,-61.09982 4.7862,-85.85439 15.5925,-67.04876 65.8747,-123.83128 130.9479,-147.87637 31.26,-11.55085 59.8599,-16.21829 93.8913,-15.32292 35.7691,0.9411 58.6721,6.03993 84.1365,18.73109 26.1909,13.05329 49.9813,35.37645 61.7783,57.9682 10.3379,19.79768 14.2817,35.47607 14.212,56.5 -0.05,14.97901 -1.3699,23.50856 -5.7271,37 -16.1756,50.08545 -65.9065,83.72534 -137.6782,93.13084 -9.7696,1.28028 -25.6814,1.69731 -79.3136,2.07874 -36.9006,0.26244 -67.6162,0.80111 -68.2568,1.19704 -2.3766,1.46881 5.3194,25.04583 12.108,37.09338 13.0011,23.07278 31.8691,41.59862 53.2409,52.27543 17.5008,8.74298 45.7312,14.7442 69.2106,14.71282 12.9568,-0.0173 32.8723,-2.41504 49.0743,-5.90831 22.1274,-4.77081 30.4931,-4.0082 40.6985,3.71003 16.8381,12.73443 18.5874,32.48738 4.3132,48.7038 -3.2963,3.74479 -6.7411,5.93713 -17.4015,11.07484 -35.3877,17.05486 -76.5203,25.35416 -110.8899,22.37418 z m 56.4948,-269.33491 c 17.5215,-5.83286 30.6509,-17.05375 37.7548,-32.26679 5.4552,-11.68238 3.0103,-34.55495 -4.9269,-46.09119 -6.3083,-9.16885 -22.718,-19.26935 -39.7973,-24.49601 -33.6805,-10.30706 -82.9994,2.59286 -109.3252,28.59524 -10.6622,10.53129 -22.0252,26.80865 -29.2746,41.93556 -4.0337,8.41688 -11.8567,32.16268 -11.1786,33.93136 0.3972,1.03607 15.0445,1.18151 75.87,0.75336 69.5404,-0.48951 75.8037,-0.67239 80.8778,-2.36153 z M 860.38098,665.219 c -46.27317,-4.56786 -78.14021,-13.06342 -114,-30.39171 -26.52491,-12.81746 -52.71073,-32.78946 -69.45648,-52.97466 -13.44271,-16.20375 -27.80268,-42.67859 -34.81083,-64.17921 -8.74154,-26.81854 -11.83215,-50.76277 -10.92941,-84.67467 1.24502,-46.76969 9.68746,-79.91561 28.97906,-113.77491 8.82598,-15.49075 16.984,-26.31316 29.35376,-38.94061 30.51488,-31.15056 66.10491,-50.33093 111.8639,-60.28632 19.00171,-4.13402 29.23196,-5.28145 47.5,-5.32757 24.3535,-0.0615 54.01745,5.47445 73.85039,13.78212 4.75728,1.99275 10.22461,4.20817 12.14961,4.92315 l 3.5,1.29998 0.68694,-11.16099 c 0.37782,-6.13854 0.63195,-40.63597 0.56474,-76.66097 -0.12029,-64.471824 -0.0879,-65.624224 2.06405,-73.413834 2.78066,-10.0655 5.5345,-14.71356 12.83063,-21.65618 11.23927,-10.6947 20.89641,-14.40722 35.78301,-13.75614 8.0199,0.35077 10.09885,0.85491 16.95865,4.11265 10.2058,4.8467 19.8318,14.27823 24.6913,24.19234 l 3.4207,6.97884 0.2616,252.521164 c 0.286,275.96753 0.5936,260.06162 -5.3342,275.81029 -5.2839,14.03807 -18.698,30.22007 -32.80235,39.57093 -9.1915,6.0937 -25.55107,12.87605 -41.26112,17.106 -21.36475,5.75248 -30.41836,6.76724 -62.86395,7.046 -15.95,0.13704 -30.8,0.0715 -33,-0.14569 z m 32.64405,-82.41678 c 18.17699,-1.8437 26.43576,-4.77174 34.61021,-12.27063 6.0179,-5.52057 8.0889,-10.53412 9.23994,-22.36838 1.06165,-10.9153 1.38899,-224.47567 0.36268,-236.61692 l -0.64312,-7.60809 -8.12963,-2.94164 c -19.83246,-7.17623 -45.12084,-10.77437 -68.58413,-9.75845 -38.18244,1.65322 -69.78627,14.63019 -94.041,38.61452 -22.36201,22.1127 -32.89509,44.84385 -37.48277,80.89049 -2.08778,16.40421 -1.63351,47.75548 0.88782,61.27271 3.42288,18.35063 13.38478,41.6019 23.61285,55.11287 19.35343,25.5653 51.69456,44.78027 88.70956,52.70536 16.3083,3.49169 35.42485,4.59437 51.45759,2.96816 z M 2142.881,664.76235 c -43.7583,-5.6325 -74.4228,-23.50999 -95.7254,-55.80818 -10.8495,-16.44964 -17.9453,-33.80344 -23.2146,-56.77411 -6.958,-30.33283 -6.4624,-14.87244 -6.8041,-212.25425 -0.3056,-176.55983 -0.2876,-178.51086 1.7224,-186.45928 4.7984,-18.97487 17.2577,-30.45957 37.3357,-34.41516 6.6371,-1.30758 9.0846,-1.36601 14.967,-0.35729 17.4529,2.99284 33.435,16.29177 38.9818,32.43727 0.6652,1.93651 1.3321,15.98412 1.6719,35.22128 l 0.5653,31.99999 51,3.3e-4 c 39.5376,2.5e-4 52.1797,0.30355 56.2489,1.34946 11.146,2.86493 22.3539,12.87753 28.1525,25.15021 2.2933,4.85373 2.5895,6.6996 2.5209,15.70915 -0.074,9.67654 -0.2702,10.59846 -3.7659,17.67161 -6.6748,13.50545 -19.1008,21.96673 -34.9534,23.80084 -4.5117,0.52199 -28.453,0.80717 -53.203,0.63374 l -45,-0.31533 -0.2905,99 c -0.196,66.83305 0.064,102.15199 0.8013,108.70086 5.3088,47.17111 27.3695,73.57227 65.8358,78.789 4.9543,0.67189 18.57,1.01166 33.5,0.83598 l 25.1534,-0.29597 5.7203,2.66616 c 10.5147,4.90073 19.5241,17.08825 20.5537,27.80425 1.0919,11.36363 -5.9074,24.47738 -16.3223,30.58091 -9.2798,5.43833 -27.0068,10.28172 -49.1361,13.42509 -14.703,2.08849 -43.5178,2.55075 -56.3156,0.90344 z M 158.13165,659.30749 c -7.98258,-2.14953 -13.1061,-5.14981 -19.84557,-11.62138 -6.82617,-6.55482 -11.87331,-15.40614 -13.30507,-23.33348 -1.44275,-7.98816 -2.48492,-232.39112 -1.15408,-248.5 3.59587,-43.52564 13.11984,-73.84078 32.03681,-101.97437 18.92631,-28.14746 43.98457,-45.02794 80.01724,-53.90356 16.87702,-4.15716 26.02929,-5.12207 48.58367,-5.12207 26.57196,0 50.74902,2.55109 75.41633,7.95771 24.74516,5.4237 35.7009,14.54927 39.07273,32.5456 1.12431,6.00076 -1.14477,15.53115 -5.44474,22.8685 -3.12256,5.32824 -11.30063,11.89577 -17.56528,14.10606 -5.64394,1.9913 -18.00685,1.94788 -27.24733,-0.0957 -9.85904,-2.18038 -49.71658,-2.53112 -57.81538,-0.50876 -28.49656,7.11588 -48.9925,23.44959 -61.62591,49.11116 -3.46458,7.03742 -6.27713,17.01006 -9.02921,32.01543 -1.57361,8.57988 -1.79576,21.32138 -2.29362,131.55314 l -0.55126,122.05314 -3.91719,7.94686 c -8.53234,17.30966 -23.38526,26.50725 -42.58281,26.36918 -4.125,-0.0297 -9.8622,-0.69003 -12.74933,-1.46746 z M 503.65693,153.4239 c -2.59823,-0.74295 -6.71216,-2.51592 -9.14208,-3.93995 -5.86954,-3.43978 -15.6076,-14.19604 -18.84158,-20.81161 -5.39701,-11.04039 -6.06733,-24.6641 -1.77765,-36.129304 4.11141,-10.98871 16.67449,-23.11823 28.76059,-27.76805 20.2641,-7.79608 48.20322,4.39349 57.63938,25.14751 3.04633,6.70015 5.01659,17.646434 4.28481,23.805354 -1.44269,12.14206 -9.04751,25.28552 -18.41283,31.82301 -11.39538,7.95458 -13.56154,8.69395 -26.28659,8.9723 -7.39128,0.16167 -13.18781,-0.23107 -16.22405,-1.09926 z"
       id="path293" />
  </g>
</svg>
